
        <svg xmlns="http://www.w3.org/2000/svg" width="750" height="750" >
        "
   <defs>
   <style>
    text {  text-anchor: middle;  
            font-family: Helvetica, Arial, sans-serif;
            font-size: 12pt;
    }
    .tile_label_white { fill: white; }
    .tile_label_black { fill: black;  }
    .group_outline { stroke: red; fill: none; stroke-width: 4; }
   </style>
   </defs>
<rect x="4" y="567" 
         width="367"  height="179"
         rx="10"  fill="#ecd1ce" 
         class="tile"/>
      <text x="187"  y="656"
         class="tile_label_black" > red: 3 </text>
      <rect x="4" y="317" 
         width="367"  height="242"
         rx="10"  fill="#165312" 
         class="tile"/>
      <text x="187"  y="438"
         class="tile_label_white" > green: 4 </text>
      <rect x="4" y="4" 
         width="367"  height="305"
         rx="10"  fill="#21201e" 
         class="tile"/>
      <text x="187"  y="156"
         class="tile_label_white" > blue: 5 </text>
      <rect x="2" y="2" 
         width="371"  height="746"
         rx="10"  fill="None" 
         class="group_outline"/>
      <rect x="379" y="379" 
         width="367"  height="367"
         rx="10"  fill="#021e37" 
         class="tile"/>
      <text x="562"  y="562"
         class="tile_label_white" > chickens: 6 </text>
      <rect x="379" y="254" 
         width="179"  height="117"
         rx="10"  fill="#7dbe7a" 
         class="tile"/>
      <text x="468"  y="312"
         class="tile_label_black" > 1 </text>
      <rect x="379" y="4" 
         width="179"  height="242"
         rx="10"  fill="#fa680d" 
         class="tile"/>
      <text x="468"  y="125"
         class="tile_label_black" > 2 </text>
      <rect x="566" y="4" 
         width="180"  height="367"
         rx="10"  fill="#86e90d" 
         class="tile"/>
      <text x="656"  y="187"
         class="tile_label_black" > 3 </text>
      <rect x="377" y="2" 
         width="371"  height="371"
         rx="10"  fill="None" 
         class="group_outline"/>
      <rect x="377" y="2" 
         width="371"  height="746"
         rx="10"  fill="None" 
         class="group_outline"/>
      </svg>