
        <svg xmlns="http://www.w3.org/2000/svg" width="500" height="500" >
        "
   <defs>
   <style>
    text {  text-anchor: middle;  
            font-family: Helvetica, Arial, sans-serif;
            font-size: 12pt;
    }
    .tile_label_white { fill: white; }
    .tile_label_black { fill: black;  }
    .group_outline { stroke: red; fill: none; stroke-width: 4; }
   </style>
   </defs>
<rect x="4" y="4" 
         width="7"  height="492"
         rx="10"  fill="#20213a" 
         class="tile"/>
      <text x="7"  y="250"
         class="tile_label_white" > 7 </text>
      <rect x="19" y="485" 
         width="477"  height="11"
         rx="10"  fill="#6ee159" 
         class="tile"/>
      <text x="257"  y="490"
         class="tile_label_black" > 9 </text>
      <rect x="19" y="4" 
         width="36"  height="473"
         rx="10"  fill="#fb7000" 
         class="tile"/>
      <text x="37"  y="240"
         class="tile_label_black" > 20 </text>
      <rect x="63" y="478" 
         width="433"  height="-1"
         rx="10"  fill="#a40569" 
         class="tile"/>
      <text x="279"  y="477"
         class="tile_label_white" > 3 </text>
      <rect x="63" y="444" 
         width="433"  height="26"
         rx="10"  fill="#a7e807" 
         class="tile"/>
      <text x="279"  y="457"
         class="tile_label_black" > 14 </text>
      <rect x="63" y="4" 
         width="33"  height="432"
         rx="10"  fill="#c0b3fb" 
         class="tile"/>
      <text x="79"  y="220"
         class="tile_label_black" > 17 </text>
      <rect x="104" y="377" 
         width="392"  height="59"
         rx="10"  fill="#f0abbc" 
         class="tile"/>
      <text x="300"  y="406"
         class="tile_label_black" > 25 </text>
      <rect x="104" y="4" 
         width="76"  height="365"
         rx="10"  fill="#1a3c47" 
         class="tile"/>
      <text x="142"  y="186"
         class="tile_label_white" > 29 </text>
      <rect x="188" y="367" 
         width="308"  height="2"
         rx="10"  fill="#83c0ad" 
         class="tile"/>
      <text x="342"  y="368"
         class="tile_label_black" > 3 </text>
      <rect x="188" y="350" 
         width="308"  height="9"
         rx="10"  fill="#f1a148" 
         class="tile"/>
      <text x="342"  y="354"
         class="tile_label_black" > 5 </text>
      <rect x="188" y="306" 
         width="308"  height="36"
         rx="10"  fill="#50bdcd" 
         class="tile"/>
      <text x="342"  y="324"
         class="tile_label_black" > 13 </text>
      <rect x="188" y="4" 
         width="-1"  height="294"
         rx="10"  fill="#710d99" 
         class="tile"/>
      <text x="187"  y="151"
         class="tile_label_white" > 2 </text>
      <rect x="195" y="4" 
         width="13"  height="294"
         rx="10"  fill="#7ffd44" 
         class="tile"/>
      <text x="201"  y="151"
         class="tile_label_black" > 6 </text>
      <rect x="216" y="261" 
         width="280"  height="37"
         rx="10"  fill="#56e56f" 
         class="tile"/>
      <text x="356"  y="279"
         class="tile_label_black" > 12 </text>
      <rect x="216" y="4" 
         width="25"  height="249"
         rx="10"  fill="#dfc160" 
         class="tile"/>
      <text x="228"  y="128"
         class="tile_label_black" > 8 </text>
      <rect x="249" y="240" 
         width="247"  height="13"
         rx="10"  fill="#25c5ac" 
         class="tile"/>
      <text x="372"  y="246"
         class="tile_label_black" > 5 </text>
      <rect x="249" y="4" 
         width="84"  height="228"
         rx="10"  fill="#9fc7d3" 
         class="tile"/>
      <text x="291"  y="118"
         class="tile_label_black" > 20 </text>
      <rect x="341" y="4" 
         width="155"  height="228"
         rx="10"  fill="#49285e" 
         class="tile"/>
      <text x="418"  y="118"
         class="tile_label_white" > 35 </text>
      </svg>